<svg width="54" height="55" viewBox="0 0 54 55" fill="none" xmlns="http://www.w3.org/2000/svg">
<g id="1814101_award_champion_cup_trophy_icon 1">
<g id="Group">
<g id="Icon-Trophy">
<path id="Fill-1_2_" d="M31.1942 32.8849C34.7172 30.2007 40.0017 26.0905 40.0017 11.1595V9.98523H13.9146V11.1595C13.9146 26.1743 19.1991 30.2007 22.7221 32.8849C24.7353 34.4786 25.7419 35.3174 25.7419 37.1628V40.7698C23.8126 40.9375 21.9672 41.6924 21.2961 43.1184H18.6119C17.2698 43.1184 16.2632 44.2089 16.2632 45.4671H37.5692C37.5692 44.125 36.4787 43.1184 35.2205 43.1184H32.5363C31.8652 41.6924 30.0198 41.0214 28.0905 40.7698V37.1628C28.1744 35.2336 29.181 34.3948 31.1942 32.8849ZM27.0001 33.5559C26.2451 32.5494 25.2386 31.7944 24.232 31.0395C21.0445 28.523 16.5988 25.1678 16.3471 12.3339H37.653C37.4014 25.1678 33.0396 28.523 29.7682 31.0395C28.7616 31.7944 27.755 32.5494 27.0001 33.5559Z" fill="url(#paint0_linear_2588_3483)"/>
<path id="5" d="M27.5678 19.4236C28.7678 19.4236 29.7818 19.7255 30.6098 20.3295C31.4378 20.9234 31.8518 21.7487 31.8518 22.8057C31.8518 23.8626 31.4258 24.693 30.5738 25.2969C29.7218 25.9009 28.6778 26.2029 27.4418 26.2029C26.4458 26.2029 25.5638 26.0116 24.7958 25.6291C24.2398 25.3449 23.8002 24.9711 23.4769 24.5076C23.2546 24.1888 23.4382 23.8026 23.8315 23.6127C24.3868 23.3445 25.098 23.6012 25.5508 23.9706C25.9932 24.3314 26.6235 24.5118 27.4418 24.5118C28.1498 24.5118 28.7138 24.3608 29.1338 24.0588C29.5658 23.7468 29.7818 23.3291 29.7818 22.8057C29.7818 22.2822 29.5718 21.8695 29.1518 21.5676C28.7318 21.2656 28.1738 21.1146 27.4778 21.1146H24.8756C24.2968 21.1146 23.8389 20.7278 23.8779 20.2719L24.2287 16.1737C24.2642 15.7593 24.7003 15.4375 25.2264 15.4375H30.3118C30.864 15.4375 31.3118 15.791 31.3118 16.227V16.2787C31.3118 16.7147 30.864 17.0682 30.3118 17.0682H27.13C26.6057 17.0682 26.1704 17.3878 26.1326 17.8006L26.0614 18.5771C26.0194 19.0343 26.478 19.4236 27.0588 19.4236H27.5678Z" fill="url(#paint1_linear_2588_3483)"/>
<path id="Fill-2_1_" d="M19.7023 30.0329C19.5345 30.0329 6.86841 27.3487 6.86841 13.5082V12.3339H15.1727V14.6826H9.30097C9.97203 25.5872 20.0378 27.6842 20.1217 27.7681L19.7023 30.0329Z" fill="url(#paint2_linear_2588_3483)"/>
<path id="Fill-3_2_" d="M34.2977 30.0329L33.7944 27.6842C34.2138 27.6003 43.9441 25.5033 44.6152 14.5987H38.7434V12.25H47.1316V13.4244C47.1316 27.3487 34.4655 30.0329 34.2977 30.0329Z" fill="url(#paint3_linear_2588_3483)"/>
</g>
</g>
</g>
<defs>
<linearGradient id="paint0_linear_2588_3483" x1="26.9581" y1="9.98523" x2="26.9581" y2="45.4671" gradientUnits="userSpaceOnUse">
<stop stop-color="#F2C937"/>
<stop offset="1" stop-color="#F78C29"/>
</linearGradient>
<linearGradient id="paint1_linear_2588_3483" x1="27.6164" y1="15.4375" x2="27.6164" y2="26.2029" gradientUnits="userSpaceOnUse">
<stop stop-color="#F2C937"/>
<stop offset="1" stop-color="#F78C29"/>
</linearGradient>
<linearGradient id="paint2_linear_2588_3483" x1="13.4951" y1="12.3339" x2="13.4951" y2="30.0329" gradientUnits="userSpaceOnUse">
<stop stop-color="#F2C937"/>
<stop offset="1" stop-color="#F78C29"/>
</linearGradient>
<linearGradient id="paint3_linear_2588_3483" x1="40.463" y1="12.25" x2="40.463" y2="30.0329" gradientUnits="userSpaceOnUse">
<stop stop-color="#F2C937"/>
<stop offset="1" stop-color="#F78C29"/>
</linearGradient>
</defs>
</svg>
