<svg width="44" height="39" viewBox="0 0 44 39" fill="none" xmlns="http://www.w3.org/2000/svg">
<path fill-rule="evenodd" clip-rule="evenodd" d="M35.4484 7.39654H8.55187C5.2096 7.39654 2.50015 10.106 2.50015 13.4483V30.931C2.50015 34.2733 5.2096 36.9827 8.55187 36.9827H35.4484C38.7907 36.9827 41.5001 34.2733 41.5001 30.931V13.4483C41.5001 10.106 38.7907 7.39654 35.4484 7.39654ZM8.55187 5.3793C4.09551 5.3793 0.48291 8.9919 0.48291 13.4483V30.931C0.48291 35.3874 4.09551 39 8.55187 39H35.4484C39.9048 39 43.5174 35.3874 43.5174 30.931V13.4483C43.5174 8.9919 39.9048 5.3793 35.4484 5.3793H8.55187Z" fill="url(#paint0_linear_2588_3455)"/>
<path d="M19.3106 2.01724H24.6899C25.804 2.01724 26.7071 2.92039 26.7071 4.03448H28.7244C28.7244 1.8063 26.9181 0 24.6899 0H19.3106C17.0824 0 15.2761 1.8063 15.2761 4.03448H17.2934C17.2934 2.92039 18.1965 2.01724 19.3106 2.01724Z" fill="url(#paint1_linear_2588_3455)"/>
<path fill-rule="evenodd" clip-rule="evenodd" d="M18.6541 20.5372L9.37394 14.7797C8.89869 14.4848 8.70435 13.8909 8.91339 13.3721C9.18032 12.7097 9.98004 12.448 10.5869 12.8246L19.5269 18.371C21.0838 19.3369 22.9163 19.3369 24.4731 18.371L33.4132 12.8246C34.02 12.448 34.8197 12.7097 35.0867 13.3721C35.2957 13.8909 35.1014 14.4848 34.6261 14.7797L25.346 20.5372C23.2397 21.8439 20.7604 21.8439 18.6541 20.5372Z" fill="url(#paint2_linear_2588_3455)"/>
<defs>
<linearGradient id="paint0_linear_2588_3455" x1="22.0001" y1="5.3793" x2="22.0001" y2="39" gradientUnits="userSpaceOnUse">
<stop stop-color="#FFB84F"/>
<stop offset="1" stop-color="#EB9260"/>
</linearGradient>
<linearGradient id="paint1_linear_2588_3455" x1="22.0003" y1="0" x2="22.0003" y2="4.03448" gradientUnits="userSpaceOnUse">
<stop stop-color="#FFB84F"/>
<stop offset="1" stop-color="#EB9260"/>
</linearGradient>
<linearGradient id="paint2_linear_2588_3455" x1="22" y1="12.1035" x2="22" y2="21.5172" gradientUnits="userSpaceOnUse">
<stop stop-color="#FFB84F"/>
<stop offset="1" stop-color="#EB9260"/>
</linearGradient>
</defs>
</svg>
