<svg width="76" height="76" viewBox="0 0 76 76" fill="none" xmlns="http://www.w3.org/2000/svg">
<g id="8725592_chat_info_icon 1">
<path id="Vector" d="M63.5234 41.1665C62.6924 41.0681 61.8562 41.3026 61.1976 41.8189C60.539 42.3351 60.1114 43.091 60.0085 43.9215C59.3368 49.2838 56.7294 54.216 52.6764 57.7907C48.6235 61.3655 43.4043 63.3365 38.0001 63.3332H20.2984L22.3251 61.3382C22.9149 60.7449 23.246 59.9423 23.246 59.1057C23.246 58.2691 22.9149 57.4665 22.3251 56.8732C19.2138 53.7748 17.0928 49.8222 16.2311 45.5166C15.3694 41.2111 15.8058 36.7467 17.485 32.6895C19.1642 28.6324 22.0105 25.1653 25.6629 22.7281C29.3153 20.2908 33.6092 18.9932 38.0001 18.9999C41.8829 18.994 45.6972 20.0214 49.0518 21.9765C49.7662 22.2994 50.5749 22.3458 51.3215 22.1067C52.0681 21.8677 52.6995 21.3602 53.0935 20.6825C53.4876 20.0048 53.6162 19.205 53.4545 18.4379C53.2929 17.6708 52.8525 16.9909 52.2184 16.5299C47.909 13.9955 42.9995 12.6615 38.0001 12.6665C32.6404 12.6841 27.3943 14.2127 22.864 17.0769C18.3338 19.941 14.7029 24.0245 12.3883 28.8587C10.0737 33.6929 9.16923 39.0817 9.77861 44.4067C10.388 49.7317 12.4866 54.7769 15.8334 58.9632L10.4184 64.2515C9.97905 64.6968 9.6814 65.2623 9.56304 65.8766C9.44469 66.4909 9.51095 67.1265 9.75345 67.7032C9.99101 68.2815 10.3944 68.7765 10.9129 69.1259C11.4313 69.4753 12.0416 69.6634 12.6668 69.6665H38.0001C44.9445 69.6665 51.65 67.131 56.857 62.5362C62.064 57.9414 65.4143 51.6036 66.2785 44.7132C66.3316 44.2992 66.3025 43.8788 66.1926 43.4762C66.0828 43.0736 65.8945 42.6966 65.6384 42.367C65.3824 42.0374 65.0637 41.7617 64.7008 41.5556C64.3378 41.3496 63.9377 41.2174 63.5234 41.1665Z" fill="url(#paint0_linear_2588_4351)"/>
<g id="Vector_2">
<path d="M62.1159 12.4413C61.73 12.2805 61.3798 12.0449 61.0854 11.7481C60.8057 11.4403 60.5807 11.0869 60.4204 10.7031C60.2581 10.3224 60.172 9.9136 60.167 9.49979C60.1646 9.08304 60.2445 8.66991 60.4021 8.28409C60.5597 7.89827 60.7919 7.54735 61.0854 7.25146C61.5307 6.81206 62.0962 6.5144 62.7105 6.39605C63.3248 6.2777 63.9604 6.34396 64.537 6.58646C64.7388 6.65577 64.9305 6.75161 65.107 6.87146L65.582 7.25146C65.8755 7.54735 66.1077 7.89827 66.2653 8.28409C66.4229 8.66991 66.5028 9.08304 66.5004 9.49979C66.4954 9.9136 66.4093 10.3224 66.247 10.7031C66.0867 11.0869 65.8618 11.4403 65.582 11.7481C65.2877 12.0449 64.9374 12.2805 64.5515 12.4413C64.1657 12.602 63.7518 12.6848 63.3337 12.6848C62.9157 12.6848 62.5018 12.602 62.1159 12.4413Z" fill="#FCDB68"/>
<path d="M61.0945 16.7606C61.6884 16.1668 62.4939 15.8331 63.3337 15.8331C64.1736 15.8331 64.979 16.1668 65.5729 16.7606C66.1668 17.3545 66.5004 18.1599 66.5004 18.9998V31.6665C66.5004 32.5063 66.1668 33.3118 65.5729 33.9056C64.979 34.4995 64.1736 34.8331 63.3337 34.8331C62.4939 34.8331 61.6884 34.4995 61.0945 33.9056C60.5007 33.3118 60.167 32.5063 60.167 31.6665V18.9998C60.167 18.1599 60.5007 17.3545 61.0945 16.7606Z" fill="#FCDB68"/>
</g>
</g>
<defs>
<linearGradient id="paint0_linear_2588_4351" x1="37.9051" y1="12.6665" x2="37.9051" y2="69.6665" gradientUnits="userSpaceOnUse">
<stop stop-color="#C8B655"/>
<stop offset="1" stop-color="#7DC855"/>
</linearGradient>
</defs>
</svg>
