<svg width="64" height="64" viewBox="0 0 64 64" fill="none" xmlns="http://www.w3.org/2000/svg">
<g id="728913_book_bookmark_reading_learning_library_icon 1">
<g id="Group">
<g id="Group_2">
<path id="Vector" fill-rule="evenodd" clip-rule="evenodd" d="M58 8C56.8945 8 56 7.1055 56 6C56 4.8945 56.8945 4 58 4C59.1055 4 60 3.1055 60 2C60 0.8945 59.1055 0 58 0H10C6.6875 0 4 2.6855 4 6V60C4 62.209 5.789 64 8 64H56C58.211 64 60 62.209 60 60V10C60 8.8945 59.1055 8 58 8ZM56 60H8V11.633C8.629 11.8555 9.297 12 10 12H20V8H10C8.8985 8 8 7.1035 8 6C8 4.8965 8.8985 4 10 4H52.367C52.1445 4.629 52 5.295 52 6C52 6.705 52.1445 7.371 52.367 8H20V12H56V60Z" fill="url(#paint0_linear_2588_4359)"/>
<g id="FAQ">
<path d="M23.211 41.3443H18.451V44.1663H23.075V46.4103H18.451V51.0003H16.105V39.1003H23.211V41.3443Z" fill="#3E3E3E"/>
<path d="M32.0392 51.0003L31.3252 48.8583H26.5822L25.8682 51.0003H23.3352L27.5002 39.1003H30.4072L34.5892 51.0003H32.0392ZM27.3302 46.6653H30.5942L28.9622 41.8033L27.3302 46.6653Z" fill="#3E3E3E"/>
<path d="M47.128 45.0503C47.128 46.5916 46.6407 47.929 45.666 49.0623L46.89 50.3373L45.224 51.8163L43.932 50.4733C43.014 50.9833 42.0167 51.2383 40.94 51.2383C39.2287 51.2383 37.7723 50.6433 36.571 49.4533C35.3697 48.252 34.769 46.7843 34.769 45.0503C34.769 43.3163 35.3697 41.8543 36.571 40.6643C37.7723 39.463 39.2287 38.8623 40.94 38.8623C42.6513 38.8623 44.1077 39.463 45.309 40.6643C46.5217 41.8543 47.128 43.3163 47.128 45.0503ZM40.94 48.9433C41.382 48.9433 41.824 48.8696 42.266 48.7223L40.311 46.6823L41.977 45.2033L44.068 47.3793C44.544 46.6993 44.782 45.923 44.782 45.0503C44.782 43.917 44.4137 42.982 43.677 42.2453C42.9403 41.5086 42.028 41.1403 40.94 41.1403C39.852 41.1403 38.9397 41.5086 38.203 42.2453C37.4663 42.982 37.098 43.917 37.098 45.0503C37.098 46.1723 37.4663 47.1016 38.203 47.8383C38.9397 48.575 39.852 48.9433 40.94 48.9433Z" fill="#3E3E3E"/>
</g>
</g>
</g>
</g>
<defs>
<linearGradient id="paint0_linear_2588_4359" x1="32" y1="0" x2="32" y2="64" gradientUnits="userSpaceOnUse">
<stop stop-color="#FFC75B"/>
<stop offset="1" stop-color="#FFB99B"/>
</linearGradient>
</defs>
</svg>
