<svg width="66" height="65" viewBox="0 0 66 65" fill="none" xmlns="http://www.w3.org/2000/svg">
<g id="Group 686">
<rect id="Rectangle 352" x="1" y="0.5" width="64" height="64" rx="9.5" stroke="white"/>
<path id="Vector" d="M21 32.9767C21 27.6291 24.3572 23.0654 29.0783 21.2788C28.9919 21.4499 28.9096 21.6233 28.8314 21.7988C28.1754 23.2711 27.8227 24.8604 27.7943 26.472C27.7658 28.0836 28.0623 29.6844 28.6659 31.1789C29.2696 32.6734 30.1681 34.031 31.3078 35.1708C32.4476 36.3105 33.8052 37.209 35.2997 37.8127C36.7942 38.4163 38.395 38.7128 40.0066 38.6843C41.6182 38.6559 43.2075 38.3032 44.6798 37.6472C44.856 37.5687 45.03 37.486 45.2018 37.3994C43.4171 42.1219 38.8531 45.48 33.5047 45.48C26.5976 45.48 21 39.8822 21 32.9767Z" stroke="#FFF383" stroke-width="3"/>
</g>
</svg>
