<svg width="66" height="65" viewBox="0 0 66 65" fill="none" xmlns="http://www.w3.org/2000/svg">
<g id="Group 686">
<rect id="Rectangle 352" x="1" y="0.5" width="64" height="64" rx="9.5" stroke="white"/>
<g id="Layer_2">
<path id="Subtract" d="M19.2 32.85C19.2 25.5874 25.0874 19.7 32.35 19.7C38.3733 19.7 43.4507 23.7496 45.0081 29.2747C45.8382 29.5071 46.61 29.8798 47.2972 30.365C46.1116 23.1801 39.8708 17.7 32.35 17.7C23.9828 17.7 17.2 24.4828 17.2 32.85C17.2 41.2171 23.9828 48 32.35 48C34.947 48 37.3914 47.3465 39.5278 46.1951V43.8701C37.4639 45.2171 34.9984 46 32.35 46C25.0874 46 19.2 40.1125 19.2 32.85Z" fill="white"/>
<path id="Subtract_2" d="M35.5001 36.5773C35.5043 37.27 35.6028 37.9407 35.7833 38.5773H19.1582C18.6059 38.5773 18.1582 38.1296 18.1582 37.5773C18.1582 37.025 18.6059 36.5773 19.1582 36.5773H35.5001Z" fill="white"/>
<path id="Subtract_3" d="M19.1582 27.1227C18.6059 27.1227 18.1582 27.5704 18.1582 28.1227C18.1582 28.675 18.6059 29.1227 19.1582 29.1227H41.6487C42.0869 29.0421 42.5385 29 43 29C43.4615 29 43.9131 29.0421 44.3513 29.1227H45.5418C46.0941 29.1227 46.5418 28.675 46.5418 28.1227C46.5418 27.5704 46.0941 27.1227 45.5418 27.1227H19.1582Z" fill="white"/>
<path id="Subtract_4" d="M27.313 32.85C27.313 29.0442 27.973 25.6461 29.0009 23.2368C29.5157 22.0303 30.103 21.1181 30.7041 20.5221C31.3011 19.9303 31.8562 19.7 32.3499 19.7C32.8436 19.7 33.3987 19.9303 33.9957 20.5221C34.5969 21.1181 35.1841 22.0303 35.6989 23.2368C36.6105 25.3737 37.2328 28.2883 37.3619 31.5754C37.9053 30.9525 38.5492 30.4194 39.2682 30.0025C39.0243 27.1152 38.415 24.5067 37.5384 22.452C36.9607 21.0978 36.2471 19.9379 35.4038 19.1018C34.5563 18.2615 33.5232 17.7 32.3499 17.7C31.1766 17.7 30.1435 18.2615 29.296 19.1018C28.4527 19.9379 27.7391 21.0978 27.1614 22.452C26.0043 25.164 25.313 28.8409 25.313 32.85C25.313 36.8591 26.0043 40.536 27.1614 43.248C27.7391 44.6021 28.4527 45.7621 29.296 46.5982C30.1435 47.4384 31.1766 48 32.3499 48C33.5232 48 34.5563 47.4384 35.4038 46.5982C36.2471 45.7621 36.9607 44.6021 37.5384 43.248C37.6937 42.8841 37.8405 42.503 37.9784 42.1059C37.3806 41.5636 36.8695 40.9269 36.4694 40.2195C36.2457 41.0364 35.9867 41.7885 35.6989 42.4631C35.1841 43.6696 34.5969 44.5819 33.9957 45.1779C33.3987 45.7697 32.8436 46 32.3499 46C31.8562 46 31.3011 45.7697 30.7041 45.1779C30.103 44.5819 29.5157 43.6696 29.0009 42.4631C27.973 40.0538 27.313 36.6557 27.313 32.85Z" fill="white"/>
<path id="Vector" d="M42.5278 41.035V48H43.4722V41.035C45.75 40.8112 47.5 38.8531 47.5 36.5315C47.5 34.042 45.4722 32 43 32C40.5278 32 38.5 34.042 38.5 36.5315C38.5 38.8531 40.2778 40.7832 42.5278 41.035Z" fill="#A4E9FF"/>
</g>
</g>
</svg>
