<svg width="36" height="35" viewBox="0 0 36 35" fill="none" xmlns="http://www.w3.org/2000/svg">
<g id="9004698_mobile_phone_smartphone_device_technology_icon 1" clip-path="url(#clip0_2701_39)">
<path id="Vector" d="M25.2917 35C26.8388 35 28.3225 34.3854 29.4165 33.2915C30.5104 32.1975 31.125 30.7138 31.125 29.1667V5.83333C31.125 4.28624 30.5104 2.80251 29.4165 1.70854C28.3225 0.614582 26.8388 0 25.2917 0L10.7083 0C9.16124 0 7.67751 0.614582 6.58354 1.70854C5.48958 2.80251 4.875 4.28624 4.875 5.83333V29.1667C4.875 30.7138 5.48958 32.1975 6.58354 33.2915C7.67751 34.3854 9.16124 35 10.7083 35H25.2917ZM7.79167 29.1667V5.83333C7.79167 5.05979 8.09896 4.31792 8.64594 3.77094C9.19292 3.22396 9.93479 2.91667 10.7083 2.91667H25.2917C26.0652 2.91667 26.8071 3.22396 27.3541 3.77094C27.901 4.31792 28.2083 5.05979 28.2083 5.83333V29.1667C28.2083 29.9402 27.901 30.6821 27.3541 31.2291C26.8071 31.776 26.0652 32.0833 25.2917 32.0833H10.7083C9.93479 32.0833 9.19292 31.776 8.64594 31.2291C8.09896 30.6821 7.79167 29.9402 7.79167 29.1667Z" fill="#91F578"/>
<path id="Vector_2" d="M12.1666 27.7083H23.8333C24.22 27.7083 24.591 27.5546 24.8644 27.2812C25.1379 27.0077 25.2916 26.6367 25.2916 26.25C25.2916 25.8632 25.1379 25.4923 24.8644 25.2188C24.591 24.9453 24.22 24.7916 23.8333 24.7916H12.1666C11.7798 24.7916 11.4089 24.9453 11.1354 25.2188C10.8619 25.4923 10.7083 25.8632 10.7083 26.25C10.7083 26.6367 10.8619 27.0077 11.1354 27.2812C11.4089 27.5546 11.7798 27.7083 12.1666 27.7083Z" fill="black"/>
<path id="Vector_3" d="M16.5416 7.29167H19.4583C19.845 7.29167 20.216 7.13802 20.4894 6.86453C20.7629 6.59104 20.9166 6.22011 20.9166 5.83333C20.9166 5.44656 20.7629 5.07563 20.4894 4.80214C20.216 4.52865 19.845 4.375 19.4583 4.375H16.5416C16.1548 4.375 15.7839 4.52865 15.5104 4.80214C15.2369 5.07563 15.0833 5.44656 15.0833 5.83333C15.0833 6.22011 15.2369 6.59104 15.5104 6.86453C15.7839 7.13802 16.1548 7.29167 16.5416 7.29167Z" fill="black"/>
</g>
<defs>
<clipPath id="clip0_2701_39">
<rect width="35" height="35" fill="white" transform="translate(0.5)"/>
</clipPath>
</defs>
</svg>
