<svg width="40" height="39" viewBox="0 0 40 39" fill="none" xmlns="http://www.w3.org/2000/svg">
<g id="832335 1" clip-path="url(#clip0_2588_3447)">
<g id="Group">
<g id="Group_2">
<path id="Vector" d="M35.5147 7.25688C31.8128 2.66555 26.2309 -0.00254237 20.3331 -2.87431e-05C10.1827 0.0134534 1.73628 7.80317 0.903051 17.9193C0.85872 18.0062 0.834955 18.1021 0.833508 18.1996C0.836935 18.2586 0.848742 18.3169 0.86847 18.3727C0.847066 18.7458 0.833508 19.1211 0.833508 19.4995C0.830308 22.4423 1.49726 25.3472 2.78385 27.9938C2.79192 28.0308 2.79368 28.0706 2.80282 28.1071C2.83633 28.2359 2.90907 28.351 3.01099 28.4366C6.77906 35.7482 14.7313 39.9074 22.886 38.8319C31.0407 37.7563 37.6426 31.6776 39.3862 23.6391L39.3879 23.6319C40.6408 17.8687 39.2168 11.8481 35.5147 7.25688ZM9.61527 4.8032C9.85071 5.34066 10.0443 5.89541 10.1942 6.46265C10.4224 7.36908 10.4909 8.0895 10.0831 8.66115C9.7478 9.08702 9.36893 9.47663 8.95258 9.82367L8.62536 10.12C8.12393 10.597 7.58197 11.0294 7.00544 11.4124C6.13885 11.9703 4.89088 12.4851 3.83447 11.8288C5.13972 9.03797 7.128 6.62146 9.61527 4.8032ZM2.95592 24.9142C2.40932 23.1613 2.13198 21.3357 2.13343 19.4996C2.13343 19.2972 2.14219 19.097 2.14874 18.8962C2.91761 18.9937 3.88505 19.256 4.15195 19.7903C4.33536 20.1572 3.89738 21.6058 3.57747 22.6633C3.35764 23.3902 3.12898 24.1557 2.95592 24.9142ZM20.3331 37.6992C13.4185 37.6927 7.1037 33.772 4.03076 27.5777C3.82761 26.3515 4.34976 24.6003 4.82194 23.0395C5.32878 21.3628 5.72936 20.0384 5.31484 19.2088C4.73747 18.0543 3.18397 17.7037 2.23321 17.597C2.3969 16.0341 2.76405 14.4993 3.32519 13.0315C3.81482 13.3002 4.36439 13.4407 4.92287 13.4401C5.92207 13.402 6.88936 13.0775 7.70941 12.5054C8.34916 12.082 8.95068 11.6035 9.50703 11.0753L9.82123 10.7906C10.3103 10.3821 10.7529 9.92124 11.1412 9.416C11.8819 8.37818 11.7154 7.1801 11.4548 6.14509C11.271 5.42856 11.0253 4.72939 10.7203 4.05551C14.5495 1.65972 19.1361 0.782317 23.5793 1.59551C22.5257 2.0878 21.5249 2.68582 20.5923 3.38049L20.5317 3.42589C19.9731 3.84513 19.2082 4.4193 19.1044 5.23966C19.0565 5.67101 19.1906 6.10282 19.4745 6.43111C19.7041 6.69581 19.9565 6.93993 20.2285 7.16075C20.6325 7.4521 20.9692 7.82694 21.2156 8.25981C20.7299 8.3436 20.2342 8.35259 19.7458 8.28647C19.6166 8.27726 19.509 8.26994 19.4338 8.26804C18.1707 8.1892 16.9028 8.2544 15.6544 8.46227C14.9345 8.57432 14.2865 8.96195 13.8473 9.54328C13.5798 9.96405 13.4981 10.4767 13.6216 10.9597C13.8145 11.7876 14.3699 12.4846 15.1339 12.8573C15.623 13.0287 16.148 13.071 16.6583 12.9802C16.8189 12.9643 16.9769 12.9475 17.1238 12.9475C17.9607 13.0502 18.7548 13.3748 19.4239 13.8879L19.4928 13.9311C19.588 13.9891 19.6886 14.0539 19.7934 14.1215C20.5614 14.6169 21.6123 15.2945 22.6939 14.8886C23.1836 14.6747 23.6034 14.3277 23.9056 13.887C24.0253 13.7279 24.1584 13.5795 24.3036 13.4433C24.6436 13.1473 25.082 12.989 25.5327 12.9995C25.6513 12.9927 25.7701 13.0089 25.8825 13.0471C26.0069 13.3439 25.3674 14.6505 24.3619 15.8603C23.8389 16.5139 23.1709 17.0367 22.4107 17.3872C21.8085 17.6594 21.133 17.7232 20.4906 17.5687C19.6341 17.3121 18.8072 16.9655 18.0236 16.5347C16.2619 15.654 14.2649 14.6562 12.2423 15.668C10.5275 16.4963 9.39567 18.1882 9.28438 20.0893C9.03782 21.6676 9.37708 24.731 12.4055 25.3365C15.7398 26.0033 17.2197 26.626 17.7523 28.7569C17.8933 29.3591 17.9974 29.9694 18.064 30.5844C18.2767 32.2601 18.4775 33.8426 20.8252 34.4297C21.5442 34.6356 22.2852 34.7554 23.0325 34.7864C23.5688 34.8047 24.0989 34.6677 24.5591 34.3919C25.3494 33.8917 25.8461 32.9466 26.1701 31.3266C26.7398 28.4792 27.341 26.4717 28.4235 25.9306C29.5559 25.3644 30.2544 23.2687 29.7581 21.9265C29.394 20.9429 28.485 20.5282 27.325 20.8186C26.5361 21.0156 26.4297 20.7291 26.3945 20.6345C26.26 19.9279 26.5433 19.2069 27.1228 18.781C27.209 18.7409 27.2994 18.7103 27.3923 18.6899C28.9113 18.3471 32.411 19.1044 33.4012 21.0899C34.727 23.7411 36.5323 24.305 37.8913 24.2784C35.7267 32.1946 28.5395 37.688 20.3331 37.6992ZM38.2009 22.9471C36.7104 23.1202 35.4562 22.294 34.5643 20.5095C33.1799 17.7334 28.9099 17.0132 27.0974 17.4246C26.9056 17.4678 26.7194 17.5328 26.5423 17.6182C25.3676 18.3426 24.811 19.7548 25.1757 21.0858C25.3035 21.4318 25.8593 22.5261 27.6408 22.0802C28.3628 21.8996 28.477 22.2106 28.539 22.3778C28.8202 23.1383 28.3491 24.5147 27.8423 24.768C26.2757 25.5513 25.5756 27.6726 24.8958 31.0717C24.654 32.2806 24.3166 33.0073 23.864 33.2937C23.3378 33.6269 22.4676 33.5006 21.1409 33.1686C19.7124 32.8115 19.5683 32.1114 19.3537 30.4211C19.2809 29.7549 19.1674 29.0939 19.0138 28.4416C18.2543 25.4037 15.9016 24.7102 12.6609 24.0621C10.0743 23.5448 10.5532 20.3888 10.5744 20.2564C10.5803 20.2211 10.5833 20.1853 10.5833 20.1495C10.6758 18.7197 11.5324 17.4511 12.824 16.831C14.2681 16.1096 15.8099 16.8815 17.4425 17.6974C18.3106 18.172 19.2273 18.5519 20.1767 18.8304C21.094 19.0554 22.0601 18.9682 22.9223 18.5826C23.8816 18.1459 24.7244 17.4892 25.3823 16.6656C25.9275 16.0111 27.6601 13.7765 27.0597 12.494C26.7665 11.9365 26.1579 11.6198 25.533 11.6996C24.7684 11.6895 24.0268 11.9614 23.4498 12.4632C23.2459 12.6491 23.0592 12.8532 22.8921 13.0729C22.731 13.3278 22.5043 13.5348 22.2358 13.6721C21.7689 13.8479 21.0647 13.3941 20.4978 13.0291C20.3842 12.9558 20.2753 12.8856 20.176 12.8247L20.1112 12.7844C19.244 12.132 18.21 11.7379 17.1286 11.6476C16.9362 11.6476 16.7347 11.6663 16.5306 11.6866C16.2355 11.7438 15.9313 11.7347 15.64 11.66C15.2618 11.4495 14.9892 11.0899 14.8888 10.6689C14.8428 10.5276 14.8617 10.3731 14.9405 10.2471C15.1914 9.96474 15.5365 9.78345 15.9114 9.73706C17.064 9.55159 18.2338 9.49469 19.399 9.56758C19.4602 9.56918 19.5478 9.57581 19.6535 9.58343C20.6203 9.65259 21.6124 9.67993 22.1595 9.20356C22.3781 9.01748 22.5114 8.75027 22.5287 8.46372C22.5893 7.48714 21.7523 6.76162 21.0801 6.17861C20.8691 6.00745 20.6715 5.8203 20.4892 5.61876C20.3836 5.48706 20.3918 5.42353 20.3943 5.40259C20.4289 5.12837 21.0037 4.69702 21.3121 4.46538L21.3728 4.41999C22.7003 3.43328 24.1719 2.65702 25.7357 2.11842C34.5938 4.86756 39.9644 13.8416 38.2009 22.9471Z" fill="url(#paint0_linear_2588_3447)"/>
</g>
</g>
</g>
<defs>
<linearGradient id="paint0_linear_2588_3447" x1="20.3332" y1="-3.05176e-05" x2="20.3332" y2="38.9999" gradientUnits="userSpaceOnUse">
<stop stop-color="#2A9D17"/>
<stop offset="1" stop-color="#149839"/>
</linearGradient>
<clipPath id="clip0_2588_3447">
<rect width="39" height="39" fill="white" transform="translate(0.833252)"/>
</clipPath>
</defs>
</svg>
