<svg width="48" height="49" viewBox="0 0 48 49" fill="none" xmlns="http://www.w3.org/2000/svg">
<g id="9043004_scan_qr_code_icon 1">
<path id="Vector (Stroke)" fill-rule="evenodd" clip-rule="evenodd" d="M13.25 13.75V17.25H16.75V13.75H13.25ZM10.75 13.7C10.75 12.3469 11.8469 11.25 13.2 11.25H16.8C18.1531 11.25 19.25 12.3469 19.25 13.7V17.3C19.25 18.6531 18.1531 19.75 16.8 19.75H13.2C11.8469 19.75 10.75 18.6531 10.75 17.3V13.7Z" fill="black"/>
<path id="Vector (Stroke)_2" fill-rule="evenodd" clip-rule="evenodd" d="M10.75 24.5C10.75 23.8096 11.3096 23.25 12 23.25H18C18.6904 23.25 19.25 23.8096 19.25 24.5C19.25 25.1904 18.6904 25.75 18 25.75H12C11.3096 25.75 10.75 25.1904 10.75 24.5Z" fill="black"/>
<path id="Vector (Stroke)_3" fill-rule="evenodd" clip-rule="evenodd" d="M30 23.25C30.6904 23.25 31.25 23.8096 31.25 24.5V30.5C31.25 31.1904 30.6904 31.75 30 31.75C29.3096 31.75 28.75 31.1904 28.75 30.5V24.5C28.75 23.8096 29.3096 23.25 30 23.25Z" fill="black"/>
<path id="Vector (Stroke)_4" fill-rule="evenodd" clip-rule="evenodd" d="M22.75 36.5C22.75 35.8096 23.3096 35.25 24 35.25H30C30.6904 35.25 31.25 35.8096 31.25 36.5C31.25 37.1904 30.6904 37.75 30 37.75H24C23.3096 37.75 22.75 37.1904 22.75 36.5Z" fill="black"/>
<path id="Vector (Stroke)_5" fill-rule="evenodd" clip-rule="evenodd" d="M24.8559 23.5713C25.3688 24.0334 25.41 24.8238 24.9479 25.3367L24.9287 25.358C24.4666 25.8709 23.6762 25.9121 23.1633 25.45C22.6504 24.9879 22.6092 24.1975 23.0713 23.6846L23.0905 23.6633C23.5526 23.1504 24.343 23.1092 24.8559 23.5713Z" fill="black"/>
<path id="Vector (Stroke)_6" fill-rule="evenodd" clip-rule="evenodd" d="M36.8559 23.5713C37.3688 24.0334 37.41 24.8238 36.9479 25.3367L36.9287 25.358C36.4666 25.8709 35.6762 25.9121 35.1633 25.45C34.6504 24.9879 34.6092 24.1975 35.0713 23.6846L35.0905 23.6633C35.5526 23.1504 36.343 23.1092 36.8559 23.5713Z" fill="black"/>
<path id="Vector (Stroke)_7" fill-rule="evenodd" clip-rule="evenodd" d="M24.8559 29.5713C25.3688 30.0334 25.41 30.8238 24.9479 31.3367L24.9287 31.358C24.4666 31.8709 23.6762 31.9121 23.1633 31.45C22.6504 30.9879 22.6092 30.1975 23.0713 29.6846L23.0905 29.6633C23.5526 29.1504 24.343 29.1092 24.8559 29.5713Z" fill="black"/>
<path id="Vector (Stroke)_8" fill-rule="evenodd" clip-rule="evenodd" d="M36.8559 29.5713C37.3688 30.0334 37.41 30.8238 36.9479 31.3367L36.9287 31.358C36.4666 31.8709 35.6762 31.9121 35.1633 31.45C34.6504 30.9879 34.6092 30.1975 35.0713 29.6846L35.0905 29.6633C35.5526 29.1504 36.343 29.1092 36.8559 29.5713Z" fill="black"/>
<path id="Vector (Stroke)_9" fill-rule="evenodd" clip-rule="evenodd" d="M36.8558 35.5713C37.3687 36.0334 37.41 36.8237 36.9479 37.3367L36.9287 37.3579C36.4667 37.8709 35.6763 37.9121 35.1634 37.45C34.6504 36.9879 34.6092 36.1976 35.0713 35.6846L35.0905 35.6634C35.5525 35.1504 36.3429 35.1092 36.8558 35.5713Z" fill="black"/>
<path id="Vector (Stroke)_10" fill-rule="evenodd" clip-rule="evenodd" d="M24.8554 17.5709C25.3685 18.0328 25.4101 18.8231 24.9483 19.3363L24.9291 19.3576C24.4672 19.8707 23.6769 19.9122 23.1638 19.4504C22.6506 18.9885 22.6091 18.1982 23.0709 17.6851L23.0901 17.6638C23.5519 17.1506 24.3423 17.1091 24.8554 17.5709Z" fill="black"/>
<path id="Vector (Stroke)_11" fill-rule="evenodd" clip-rule="evenodd" d="M24.8554 11.571C25.3686 12.0328 25.4101 12.8232 24.9482 13.3363L24.9291 13.3576C24.4672 13.8707 23.6768 13.9122 23.1637 13.4504C22.6506 12.9885 22.6091 12.1981 23.071 11.685L23.0901 11.6637C23.552 11.1506 24.3423 11.1091 24.8554 11.571Z" fill="black"/>
<path id="Vector (Stroke)_12" fill-rule="evenodd" clip-rule="evenodd" d="M13.25 31.75V35.25H16.75V31.75H13.25ZM10.75 31.7C10.75 30.3468 11.8469 29.25 13.2 29.25H16.8C18.1531 29.25 19.25 30.3468 19.25 31.7V35.3C19.25 36.6532 18.1531 37.75 16.8 37.75H13.2C11.8469 37.75 10.75 36.6532 10.75 35.3V31.7Z" fill="black"/>
<path id="Vector (Stroke)_13" fill-rule="evenodd" clip-rule="evenodd" d="M31.25 13.75V17.25H34.75V13.75H31.25ZM28.75 13.7C28.75 12.3469 29.8468 11.25 31.2 11.25H34.8C36.1532 11.25 37.25 12.3469 37.25 13.7V17.3C37.25 18.6531 36.1532 19.75 34.8 19.75H31.2C29.8468 19.75 28.75 18.6531 28.75 17.3V13.7Z" fill="black"/>
<path id="Vector (Stroke)_14" fill-rule="evenodd" clip-rule="evenodd" d="M34.75 6.5C34.75 5.80964 35.3096 5.25 36 5.25H42C42.6904 5.25 43.25 5.80964 43.25 6.5V12.5C43.25 13.1904 42.6904 13.75 42 13.75C41.3096 13.75 40.75 13.1904 40.75 12.5V7.75H36C35.3096 7.75 34.75 7.19036 34.75 6.5Z" fill="#FFE03F"/>
<path id="Vector (Stroke)_15" fill-rule="evenodd" clip-rule="evenodd" d="M42 35.25C42.6904 35.25 43.25 35.8096 43.25 36.5V42.5C43.25 43.1904 42.6904 43.75 42 43.75H36C35.3096 43.75 34.75 43.1904 34.75 42.5C34.75 41.8096 35.3096 41.25 36 41.25H40.75V36.5C40.75 35.8096 41.3096 35.25 42 35.25Z" fill="#FFE03F"/>
<path id="Vector (Stroke)_16" fill-rule="evenodd" clip-rule="evenodd" d="M4.75 6.5C4.75 5.80964 5.30964 5.25 6 5.25H12C12.6904 5.25 13.25 5.80964 13.25 6.5C13.25 7.19036 12.6904 7.75 12 7.75H7.25V12.5C7.25 13.1904 6.69036 13.75 6 13.75C5.30964 13.75 4.75 13.1904 4.75 12.5V6.5Z" fill="#FFE03F"/>
<path id="Vector (Stroke)_17" fill-rule="evenodd" clip-rule="evenodd" d="M6 35.25C6.69036 35.25 7.25 35.8096 7.25 36.5V41.25H12C12.6904 41.25 13.25 41.8096 13.25 42.5C13.25 43.1904 12.6904 43.75 12 43.75H6C5.30964 43.75 4.75 43.1904 4.75 42.5V36.5C4.75 35.8096 5.30964 35.25 6 35.25Z" fill="#FFE03F"/>
</g>
</svg>
