<svg width="50" height="25" viewBox="0 0 50 25" fill="none" xmlns="http://www.w3.org/2000/svg">
<g id="Group 830">
<path id="Vector 162" d="M48.5 0.75C48.9142 0.75 49.25 1.08579 49.25 1.5V8.25C49.25 8.66421 48.9142 9 48.5 9C48.0858 9 47.75 8.66421 47.75 8.25V2.25H41.75C41.3358 2.25 41 1.91421 41 1.5C41 1.08579 41.3358 0.75 41.75 0.75H48.5ZM2.03033 0.969669C14.7161 13.6555 35.2839 13.6555 47.9697 0.969669L49.0303 2.03033C35.7587 15.3019 14.2413 15.3019 0.96967 2.03033L2.03033 0.969669Z" fill="#4EBF31"/>
<g id="Group 822">
<g id="IC">
<circle id="Ellipse 271" cx="25" cy="10.2671" r="9" fill="#4EBF31"/>
<path id="Vector" d="M25.7462 11.4086C27.4184 11.4086 28.7785 10.0485 28.7785 8.3763C28.7785 6.70411 27.4182 5.34399 25.7462 5.34399H22.7139C22.3418 5.34399 22.0401 5.64575 22.0401 6.01784V10.0609H21.3662C20.9941 10.0609 20.6924 10.362 20.6924 10.7348C20.6924 11.1075 20.9941 11.4086 21.3662 11.4086H22.0401V12.0825H21.3662C20.9941 12.0825 20.6924 12.3842 20.6924 12.7563C20.6924 13.1284 20.9941 13.4301 21.3662 13.4301H22.0401V14.104C22.0401 14.4761 22.3418 14.7778 22.7139 14.7778C23.086 14.7778 23.3878 14.4761 23.3878 14.104V13.4301H26.757C27.1291 13.4301 27.4308 13.1284 27.4308 12.7563C27.4308 12.3842 27.1291 12.0825 26.757 12.0825H23.3878V11.4086H25.7462ZM23.3878 6.69169H25.7462C26.6749 6.69169 27.4308 7.44766 27.4308 8.3763C27.4308 9.30495 26.6749 10.0609 25.7462 10.0609H23.3878V6.69169Z" fill="white"/>
</g>
</g>
</g>
</svg>
