<svg width="40" height="39" viewBox="0 0 40 39" fill="none" xmlns="http://www.w3.org/2000/svg">
<g id="settings" clip-path="url(#clip0_2588_3463)">
<g id="Group">
<path id="Vector" d="M19.6658 27.625C15.1856 27.625 11.5408 23.9802 11.5408 19.5C11.5408 15.0199 15.1856 11.375 19.6658 11.375C24.1459 11.375 27.7908 15.0199 27.7908 19.5C27.7908 23.9802 24.1459 27.625 19.6658 27.625ZM19.6658 13C16.081 13 13.1658 15.9153 13.1658 19.5C13.1658 23.0848 16.081 26 19.6658 26C23.2505 26 26.1658 23.0848 26.1658 19.5C26.1658 15.9153 23.2505 13 19.6658 13Z" fill="url(#paint0_linear_2588_3463)"/>
</g>
<g id="Group_2">
<path id="Vector_2" d="M22.4285 39H16.9035C15.7758 39 14.7796 38.1989 14.5343 37.0955L13.7851 33.7675C12.5371 33.2605 11.3509 32.5731 10.2508 31.7151L7.00725 32.7389C5.90388 33.0801 4.70463 32.6154 4.15375 31.629L1.39613 26.8613C0.833878 25.8619 1.024 24.6269 1.85113 23.8485L4.35688 21.5459C4.27238 20.8536 4.2285 20.1679 4.2285 19.5C4.2285 18.8321 4.27238 18.1464 4.35688 17.4541L1.85925 15.158C1.024 14.3731 0.835502 13.1381 1.39125 12.1469L4.16025 7.35962C4.70788 6.38462 5.90875 5.91988 7.00563 6.2595L10.2524 7.28325C11.3509 6.4285 12.5371 5.7395 13.7851 5.2325L14.5343 1.90125C14.7796 0.801125 15.7758 0 16.9035 0H22.4285C23.5563 0 24.5524 0.801125 24.7978 1.90287L25.5469 5.2325C26.7949 5.7395 27.9811 6.42687 29.0813 7.28487L32.3248 6.26113C33.4281 5.91987 34.6258 6.38625 35.1783 7.36937L37.9359 12.1371C38.4965 13.1381 38.308 14.3731 37.4809 15.1515L34.9751 17.4541C35.0596 18.1464 35.1035 18.8321 35.1035 19.5C35.1035 20.1679 35.0596 20.8536 34.9751 21.5459L37.4744 23.842C37.476 23.8436 37.4793 23.8469 37.4809 23.8485C38.308 24.6269 38.4965 25.8619 37.9408 26.8531L35.1718 31.6404C34.6258 32.6154 33.4249 33.0834 32.3264 32.7405L29.0796 31.7167C27.9795 32.5731 26.7933 33.2621 25.5453 33.7691L24.7961 37.1004C24.5524 38.1989 23.5563 39 22.4285 39ZM10.4198 29.9975C10.6066 29.9975 10.7886 30.0625 10.9365 30.1827C12.113 31.1529 13.4 31.9004 14.7634 32.4041C15.0234 32.5 15.2151 32.7194 15.2753 32.9875L16.1203 36.7412C16.2015 37.1085 16.5314 37.375 16.9035 37.375H22.4285C22.8006 37.375 23.1305 37.1085 23.2101 36.7429L24.0568 32.9875C24.1169 32.7194 24.3086 32.5 24.567 32.4041C25.9304 31.8988 27.219 31.1512 28.3939 30.1827C28.6051 30.0089 28.8944 29.9552 29.1544 30.0349L32.8106 31.1886C33.1828 31.3073 33.5776 31.161 33.758 30.8344L36.527 26.0471C36.7106 25.7189 36.6473 25.2996 36.3678 25.0331L33.5598 22.4543C33.3615 22.2722 33.2656 22.0025 33.3063 21.7376C33.4216 20.9788 33.4785 20.2264 33.4785 19.5C33.4785 18.7736 33.4216 18.0212 33.3095 17.2624C33.2705 16.9959 33.3648 16.7278 33.563 16.5457L36.3743 13.962C36.6489 13.7036 36.7139 13.2811 36.5238 12.9431L33.7661 8.17375C33.5776 7.839 33.1828 7.69113 32.809 7.81138L29.156 8.96513C28.896 9.048 28.6084 8.99275 28.3955 8.81725C27.219 7.84713 25.932 7.09963 24.5686 6.59587C24.3086 6.5 24.1169 6.28062 24.0568 6.0125L23.2118 2.25875C23.1305 1.8915 22.8006 1.625 22.4285 1.625H16.9035C16.5314 1.625 16.2015 1.8915 16.1219 2.2555L15.2753 6.0125C15.2151 6.28062 15.0234 6.5 14.7634 6.59587C13.4 7.09963 12.113 7.84713 10.9365 8.81725C10.7269 8.99275 10.4409 9.048 10.176 8.96513L6.51975 7.81138C6.146 7.69438 5.75438 7.84063 5.57075 8.164L2.80338 12.9513C2.61975 13.2811 2.68313 13.702 2.96588 13.9669L5.77063 16.5441C5.96888 16.7261 6.06475 16.9959 6.02413 17.2607C5.91038 18.0212 5.8535 18.7736 5.8535 19.5C5.8535 20.2264 5.91038 20.9788 6.0225 21.7376C6.0615 22.0041 5.96725 22.2722 5.769 22.4543L2.95775 25.038C2.68313 25.2964 2.61813 25.7189 2.80825 26.0569L5.56588 30.8246C5.75438 31.1594 6.14438 31.304 6.523 31.187L10.176 30.0349C10.2556 30.0105 10.3385 29.9975 10.4198 29.9975Z" fill="url(#paint1_linear_2588_3463)"/>
</g>
</g>
<defs>
<linearGradient id="paint0_linear_2588_3463" x1="11.5408" y1="19.3111" x2="27.7908" y2="19.3111" gradientUnits="userSpaceOnUse">
<stop stop-color="#2982D3"/>
<stop offset="1" stop-color="#545BFF"/>
</linearGradient>
<linearGradient id="paint1_linear_2588_3463" x1="1.07471" y1="19.0465" x2="38.2577" y2="19.0465" gradientUnits="userSpaceOnUse">
<stop stop-color="#2982D3"/>
<stop offset="1" stop-color="#545BFF"/>
</linearGradient>
<clipPath id="clip0_2588_3463">
<rect width="39" height="39" fill="white" transform="translate(0.166504)"/>
</clipPath>
</defs>
</svg>
