<svg width="50" height="25" viewBox="0 0 50 25" fill="none" xmlns="http://www.w3.org/2000/svg">
<g id="Group 831">
<path id="Vector 162" d="M1.5 24.75C1.08578 24.75 0.75 24.4142 0.75 24V17.25C0.75 16.8358 1.08578 16.5 1.5 16.5C1.91422 16.5 2.25 16.8358 2.25 17.25V23.25H8.25C8.66422 23.25 9 23.5858 9 24C9 24.4142 8.66422 24.75 8.25 24.75H1.5ZM47.9697 24.5303C35.2839 11.8445 14.7161 11.8445 2.03033 24.5303L0.969669 23.4697C14.2413 10.1981 35.7587 10.1981 49.0303 23.4697L47.9697 24.5303Z" fill="#3E85EF"/>
<g id="Group 822">
<g id="IC">
<circle id="Ellipse 271" cx="10" cy="10" r="10" transform="matrix(-1 0 0 1 34 4.26709)" fill="#3E85EF"/>
<path id="Vector" d="M19.2238 20.038L19.3653 19.7552C19.8453 18.7931 20.6109 18.0028 21.5573 17.4924C20.9279 17.0653 20.4121 16.491 20.0548 15.8195C19.6975 15.1479 19.5093 14.3994 19.5067 13.6387C19.5052 12.8438 19.7099 12.0622 20.1007 11.3701C20.4915 10.678 21.0552 10.0991 21.7366 9.6899C22.4179 9.28069 23.1938 9.05517 23.9884 9.03536C24.783 9.01556 25.5691 9.20214 26.27 9.57689C26.971 9.95165 27.5627 10.5018 27.9875 11.1735C28.4124 11.8453 28.6557 12.6157 28.6939 13.4097C28.732 14.2036 28.5636 14.9938 28.2051 15.7032C27.8466 16.4126 27.3103 17.0169 26.6485 17.4571C27.5949 17.9674 28.3605 18.7577 28.8406 19.7198L28.982 20.0027C29.0238 20.0863 29.0487 20.1772 29.0553 20.2705C29.062 20.3637 29.0502 20.4573 29.0206 20.5459C28.9911 20.6345 28.9444 20.7165 28.8831 20.7871C28.8219 20.8577 28.7474 20.9155 28.6638 20.9573C28.5802 20.9991 28.4893 21.024 28.396 21.0306C28.3028 21.0372 28.2093 21.0254 28.1206 20.9959C28.032 20.9664 27.95 20.9196 27.8794 20.8584C27.8088 20.7972 27.751 20.7227 27.7092 20.6391L27.5678 20.3562C27.2421 19.7174 26.7461 19.181 26.1346 18.8064C25.5232 18.4318 24.82 18.2335 24.1029 18.2335C23.3858 18.2335 22.6827 18.4318 22.0712 18.8064C21.4598 19.181 20.9638 19.7174 20.6381 20.3562L20.4967 20.6391C20.4553 20.7231 20.3977 20.798 20.3272 20.8596C20.2567 20.9211 20.1746 20.968 20.0858 20.9976C19.997 21.0272 19.9032 21.0389 19.8099 21.032C19.7165 21.0251 19.6255 20.9997 19.542 20.9573C19.1885 20.8159 19.0471 20.3916 19.2238 20.038ZM27.2849 13.6387C27.2849 13.0093 27.0983 12.3941 26.7487 11.8708C26.399 11.3476 25.9021 10.9397 25.3206 10.6989C24.7392 10.458 24.0994 10.395 23.4822 10.5178C22.8649 10.6406 22.2979 10.9436 21.8529 11.3886C21.4079 11.8337 21.1048 12.4006 20.9821 13.0179C20.8593 13.6351 20.9223 14.2749 21.1631 14.8564C21.404 15.4378 21.8118 15.9348 22.3351 16.2844C22.8584 16.6341 23.4736 16.8207 24.1029 16.8207C24.5213 16.8225 24.9359 16.7414 25.3227 16.5821C25.7096 16.4228 26.0611 16.1885 26.3569 15.8927C26.6527 15.5968 26.8871 15.2453 27.0463 14.8585C27.2056 14.4716 27.2867 14.057 27.2849 13.6387Z" fill="white"/>
</g>
</g>
</g>
</svg>
