<svg width="45" height="53" viewBox="0 0 45 53" fill="none" xmlns="http://www.w3.org/2000/svg">
<g id="4781810_coin_currency_dollar_finance_money_icon 1" clip-path="url(#clip0_2588_3494)">
<g id="Layer 2">
<path id="Union" fill-rule="evenodd" clip-rule="evenodd" d="M34.8177 19.3639V21.8755C34.3744 21.785 33.9199 21.7385 33.4606 21.7385H8.31163C8.44167 21.6564 8.58567 21.5964 8.73793 21.5621L31.4933 16.3923C31.8792 16.2878 32.2838 16.2726 32.6764 16.3479C33.069 16.4231 33.4394 16.5868 33.7593 16.8265C34.1154 17.1424 34.3955 17.5347 34.5788 17.9741C34.762 18.4135 34.8437 18.8885 34.8177 19.3639ZM4.96573 22.919C4.96573 22.9481 4.96666 22.9771 4.96852 23.006C4.96656 23.0357 4.96558 23.0655 4.96558 23.0954V42.0921C4.96558 43.8915 5.68037 45.6171 6.95272 46.8895C8.22507 48.1618 9.95074 48.8766 11.7501 48.8766H33.4606C35.26 48.8766 36.9857 48.1618 38.258 46.8895C39.5304 45.6171 40.2452 43.8915 40.2452 42.0921V39.3783V31.2368V28.523C40.2452 26.7236 39.5304 24.998 38.258 23.7256C38.0297 23.4973 37.7868 23.287 37.5315 23.0955V23.0954V19.3639C37.5561 18.4821 37.3823 17.6061 37.023 16.8006C36.6637 15.995 36.128 15.2805 35.4554 14.7097C34.8194 14.2118 34.0779 13.8661 33.2876 13.6991C32.4973 13.5321 31.6793 13.5483 30.8962 13.7463L8.12732 18.9161C7.22311 19.1232 6.41677 19.633 5.84181 20.3609C5.26685 21.0889 4.95776 21.9914 4.96573 22.919ZM37.5314 29.8799V28.523C37.5314 27.4434 37.1025 26.408 36.3391 25.6446C35.5757 24.8812 34.5403 24.4523 33.4606 24.4523H7.67939V42.0921C7.67939 43.1717 8.10827 44.2071 8.87168 44.9705C9.63509 45.7339 10.6705 46.1628 11.7501 46.1628H33.4606C34.5403 46.1628 35.5757 45.7339 36.3391 44.9705C37.1025 44.2071 37.5314 43.1717 37.5314 42.0921V40.7352H29.3899C27.9504 40.7352 26.5699 40.1633 25.552 39.1455C24.5341 38.1276 23.9623 36.747 23.9623 35.3076C23.9623 33.8681 24.5341 32.4875 25.552 31.4696C26.5699 30.4518 27.9504 29.8799 29.3899 29.8799H37.5314ZM37.5314 38.0214V32.5937H29.3899C28.6702 32.5937 27.9799 32.8797 27.471 33.3886C26.962 33.8975 26.6761 34.5878 26.6761 35.3076C26.6761 36.0273 26.962 36.7176 27.471 37.2265C27.9799 37.7354 28.6702 38.0214 29.3899 38.0214H37.5314Z" fill="url(#paint0_linear_2588_3494)"/>
<path id="Ellipse 279 (Stroke)" fill-rule="evenodd" clip-rule="evenodd" d="M13.8948 15.0526C16.6562 15.0526 18.8948 12.8141 18.8948 10.0526C18.8948 7.2912 16.6562 5.05263 13.8948 5.05263C11.1334 5.05263 8.89478 7.2912 8.89478 10.0526C8.89478 12.8141 11.1334 15.0526 13.8948 15.0526ZM13.8948 18.0526C18.3131 18.0526 21.8948 14.4709 21.8948 10.0526C21.8948 5.63435 18.3131 2.05263 13.8948 2.05263C9.4765 2.05263 5.89478 5.63435 5.89478 10.0526C5.89478 14.4709 9.4765 18.0526 13.8948 18.0526Z" fill="url(#paint1_linear_2588_3494)"/>
</g>
<path id="Subtract" d="M37.4787 26.0526C36.7071 24.2867 34.945 23.0526 32.8947 23.0526C30.8444 23.0526 29.0823 24.2867 28.3107 26.0526H25.1467C26.0348 22.6022 29.167 20.0526 32.8947 20.0526C36.6224 20.0526 39.7546 22.6022 40.6427 26.0526H37.4787Z" fill="url(#paint2_linear_2588_3494)"/>
</g>
<defs>
<linearGradient id="paint0_linear_2588_3494" x1="22.6054" y1="13.5848" x2="22.6054" y2="48.8766" gradientUnits="userSpaceOnUse">
<stop stop-color="#6C95FF"/>
<stop offset="1" stop-color="#923FFC"/>
</linearGradient>
<linearGradient id="paint1_linear_2588_3494" x1="13.8948" y1="2.05263" x2="13.8948" y2="18.0526" gradientUnits="userSpaceOnUse">
<stop stop-color="#FDCF59"/>
<stop offset="1" stop-color="#EE991A"/>
</linearGradient>
<linearGradient id="paint2_linear_2588_3494" x1="32.8948" y1="20.0526" x2="32.8948" y2="36.0526" gradientUnits="userSpaceOnUse">
<stop stop-color="#FDCF59"/>
<stop offset="1" stop-color="#EE991A"/>
</linearGradient>
<clipPath id="clip0_2588_3494">
<rect width="43.4211" height="52.8947" fill="white" transform="translate(0.894775 0.0526276)"/>
</clipPath>
</defs>
</svg>
