<svg width="58" height="58" viewBox="0 0 58 58" fill="none" xmlns="http://www.w3.org/2000/svg">
<g id="7156616_youtube_video_icon 1" clip-path="url(#clip0_2588_4369)">
<path id="Vector" d="M42.0417 57.5855H15.9583C11.8371 57.5811 7.886 55.942 4.97188 53.0279C2.05777 50.1138 0.418693 46.1627 0.414307 42.0415V15.9581C0.418693 11.8369 2.05777 7.88575 4.97188 4.97164C7.886 2.05752 11.8371 0.418449 15.9583 0.414062H42.0417C46.1629 0.418449 50.114 2.05752 53.0282 4.97164C55.9423 7.88575 57.5813 11.8369 57.5857 15.9581V42.0415C57.5813 46.1627 55.9423 50.1138 53.0282 53.0279C50.114 55.942 46.1629 57.5811 42.0417 57.5855ZM15.9583 4.55692C12.9359 4.5613 10.0385 5.7639 7.90132 7.90108C5.76414 10.0383 4.56155 12.9356 4.55716 15.9581V42.0415C4.56155 45.0639 5.76414 47.9613 7.90132 50.0985C10.0385 52.2357 12.9359 53.4383 15.9583 53.4426H42.0417C45.0642 53.4383 47.9615 52.2357 50.0987 50.0985C52.2359 47.9613 53.4385 45.0639 53.4429 42.0415V15.9581C53.4385 12.9356 52.2359 10.0383 50.0987 7.90108C47.9615 5.7639 45.0642 4.5613 42.0417 4.55692H15.9583Z" fill="url(#paint0_linear_2588_4369)"/>
<path id="Vector_2" d="M24.4653 40.4673C23.4013 40.4588 22.3827 40.0346 21.6272 39.2853C20.8717 38.536 20.4391 37.521 20.4219 36.457V21.5428C20.4296 20.8134 20.6344 20.0998 21.0147 19.4774C21.3949 18.855 21.9364 18.347 22.5819 18.0073C23.2273 17.6676 23.9526 17.5088 24.6809 17.5478C25.4092 17.5867 26.1135 17.8219 26.719 18.2285L37.7887 25.6359C38.339 26.0077 38.7896 26.5088 39.1012 27.0953C39.4127 27.6818 39.5756 28.3358 39.5756 28.9999C39.5756 29.664 39.4127 30.318 39.1012 30.9045C38.7896 31.491 38.339 31.9921 37.7887 32.3639L26.719 39.7713C26.0554 40.2259 25.2696 40.4686 24.4653 40.4673ZM24.6144 21.7748V36.225L35.4024 28.9999L24.6144 21.7748Z" fill="url(#paint1_linear_2588_4369)"/>
</g>
<defs>
<linearGradient id="paint0_linear_2588_4369" x1="29" y1="0.414062" x2="29" y2="57.5855" gradientUnits="userSpaceOnUse">
<stop stop-color="#7CB8FF"/>
<stop offset="1" stop-color="#619FE8"/>
</linearGradient>
<linearGradient id="paint1_linear_2588_4369" x1="29.9987" y1="17.542" x2="29.9987" y2="40.4673" gradientUnits="userSpaceOnUse">
<stop stop-color="#FFB46F"/>
<stop offset="1" stop-color="#EC3F3F"/>
</linearGradient>
<clipPath id="clip0_2588_4369">
<rect width="58" height="58" fill="white"/>
</clipPath>
</defs>
</svg>
